<?xml version="1.0" encoding="UTF-8"?>
<svg xmlns="http://www.w3.org/2000/svg" xmlns:xlink="http://www.w3.org/1999/xlink" width="px" height="0px" viewBox="0 0 19 19" version="1.1">
<g id="surface1">
<path style=" stroke:none;fill-rule:nonzero;fill:rgb(70.196078%,70.588235%,70.588235%);fill-opacity:1;" d="M 12.457031 7.238281 C 12.453125 7.238281 12.449219 7.238281 12.445312 7.238281 C 12.226562 7.234375 12.019531 7.144531 11.867188 6.988281 C 11.546875 6.660156 11.554688 6.136719 11.882812 5.816406 C 12.039062 5.664062 12.246094 5.582031 12.46875 5.585938 C 12.6875 5.585938 12.894531 5.675781 13.050781 5.832031 C 13.367188 6.160156 13.359375 6.683594 13.035156 7.003906 C 12.878906 7.152344 12.675781 7.238281 12.457031 7.238281 Z M 12.457031 5.960938 C 12.339844 5.960938 12.230469 6.007812 12.144531 6.089844 C 11.96875 6.261719 11.964844 6.546875 12.136719 6.722656 C 12.21875 6.808594 12.332031 6.855469 12.453125 6.859375 C 12.574219 6.859375 12.683594 6.816406 12.769531 6.730469 C 12.949219 6.558594 12.953125 6.273438 12.777344 6.097656 C 12.695312 6.011719 12.582031 5.964844 12.464844 5.960938 C 12.460938 5.960938 12.460938 5.960938 12.457031 5.960938 Z M 12.457031 5.960938 "/>
<path style=" stroke:none;fill-rule:nonzero;fill:rgb(70.196078%,70.588235%,70.588235%);fill-opacity:1;" d="M 2.121094 2.339844 L 1.992188 1.960938 C 2.289062 1.859375 2.445312 1.539062 2.347656 1.242188 C 2.296875 1.101562 2.199219 0.984375 2.0625 0.917969 C 1.925781 0.851562 1.773438 0.84375 1.632812 0.890625 L 1.503906 0.511719 C 1.746094 0.429688 2.007812 0.445312 2.238281 0.558594 C 2.46875 0.671875 2.644531 0.871094 2.726562 1.113281 C 2.898438 1.617188 2.625 2.167969 2.121094 2.339844 Z M 2.121094 2.339844 "/>
<path style=" stroke:none;fill-rule:nonzero;fill:rgb(70.196078%,70.588235%,70.588235%);fill-opacity:1;" d="M 17.527344 1.386719 C 17.402344 1.253906 17.191406 1.246094 17.058594 1.371094 C 16.925781 1.5 16.921875 1.707031 17.046875 1.839844 C 17.171875 1.972656 17.382812 1.976562 17.515625 1.851562 C 17.644531 1.726562 17.652344 1.515625 17.527344 1.386719 Z M 17.527344 1.386719 "/>
<path style=" stroke:none;fill-rule:nonzero;fill:rgb(70.196078%,70.588235%,70.588235%);fill-opacity:1;" d="M 7.761719 9.089844 L 8.929688 8.089844 L 9.363281 8.308594 L 8.039062 9.414062 Z M 7.761719 9.089844 "/>
<path style=" stroke:none;fill-rule:nonzero;fill:rgb(70.196078%,70.588235%,70.588235%);fill-opacity:1;" d="M 7.058594 0.191406 C 7.054688 0.191406 7.050781 0.191406 7.046875 0.191406 C 6.851562 0.191406 6.671875 0.113281 6.535156 -0.0273438 C 6.253906 -0.316406 6.261719 -0.777344 6.550781 -1.058594 C 6.6875 -1.195312 6.871094 -1.265625 7.066406 -1.265625 C 7.261719 -1.261719 7.445312 -1.183594 7.578125 -1.042969 C 7.859375 -0.757812 7.855469 -0.292969 7.566406 -0.015625 C 7.429688 0.121094 7.25 0.191406 7.058594 0.191406 Z M 7.058594 -0.933594 C 6.953125 -0.933594 6.855469 -0.890625 6.78125 -0.820312 C 6.625 -0.667969 6.621094 -0.417969 6.773438 -0.261719 C 6.847656 -0.183594 6.945312 -0.140625 7.050781 -0.140625 C 7.160156 -0.140625 7.257812 -0.179688 7.332031 -0.253906 C 7.488281 -0.40625 7.492188 -0.65625 7.339844 -0.8125 C 7.265625 -0.886719 7.167969 -0.929688 7.0625 -0.933594 C 7.0625 -0.933594 7.058594 -0.933594 7.058594 -0.933594 Z M 7.058594 -0.933594 "/>
<path style=" stroke:none;fill-rule:nonzero;fill:rgb(87.843137%,87.843137%,87.843137%);fill-opacity:1;" d="M -1.269531 5.429688 L 0.625 5.675781 L 0.246094 8.582031 L -1.648438 8.335938 Z M -1.269531 5.429688 "/>
<path style=" stroke:none;fill-rule:nonzero;fill:rgb(0%,0%,0%);fill-opacity:1;" d="M 0.6875 5.273438 L -1.230469 5.027344 C -1.371094 5.007812 -1.5 5.105469 -1.515625 5.246094 L -1.953125 8.597656 C -1.96875 8.738281 -1.871094 8.867188 -1.730469 8.886719 L 0.1875 9.132812 C 0.328125 9.152344 0.457031 9.054688 0.472656 8.914062 L 0.910156 5.5625 C 0.925781 5.421875 0.828125 5.292969 0.6875 5.273438 Z M -0.753906 8.875 C -0.828125 8.863281 -0.882812 8.796875 -0.871094 8.71875 C -0.863281 8.648438 -0.796875 8.589844 -0.71875 8.601562 C -0.640625 8.613281 -0.589844 8.679688 -0.601562 8.757812 C -0.609375 8.832031 -0.675781 8.882812 -0.753906 8.875 Z M 0.246094 8.585938 L -1.648438 8.34375 L -1.269531 5.4375 L 0.625 5.679688 Z M 0.246094 8.585938 "/>
<path style=" stroke:none;fill-rule:nonzero;fill:rgb(87.843137%,87.843137%,87.843137%);fill-opacity:1;" d="M 17.929688 5.429688 L 19.824219 5.675781 L 19.445312 8.582031 L 17.550781 8.335938 Z M 17.929688 5.429688 "/>
<path style=" stroke:none;fill-rule:nonzero;fill:rgb(40%,40%,40%);fill-opacity:1;" d="M 18.597656 8.761719 C 18.609375 8.683594 18.554688 8.617188 18.480469 8.605469 C 18.40625 8.597656 18.335938 8.648438 18.328125 8.726562 C 18.316406 8.800781 18.371094 8.867188 18.445312 8.878906 C 18.519531 8.886719 18.589844 8.835938 18.597656 8.761719 Z M 18.597656 8.761719 "/>
<path style=" stroke:none;fill-rule:nonzero;fill:rgb(0%,0%,0%);fill-opacity:1;" d="M 19.886719 5.273438 L 17.972656 5.027344 C 17.832031 5.007812 17.703125 5.105469 17.683594 5.246094 L 17.25 8.597656 C 17.230469 8.738281 17.328125 8.867188 17.46875 8.886719 L 19.386719 9.132812 C 19.527344 9.152344 19.65625 9.054688 19.675781 8.914062 L 20.109375 5.5625 C 20.128906 5.421875 20.027344 5.292969 19.886719 5.273438 Z M 18.445312 8.875 C 18.371094 8.863281 18.316406 8.796875 18.328125 8.71875 C 18.335938 8.648438 18.40625 8.589844 18.480469 8.601562 C 18.558594 8.613281 18.609375 8.679688 18.601562 8.757812 C 18.589844 8.832031 18.523438 8.882812 18.445312 8.875 Z M 19.445312 8.585938 L 17.550781 8.34375 L 17.929688 5.4375 L 19.824219 5.679688 Z M 19.445312 8.585938 "/>
<path style=" stroke:none;fill-rule:nonzero;fill:rgb(87.843137%,87.843137%,87.843137%);fill-opacity:1;" d="M 5.160156 4.78125 L 6.019531 3.59375 L 7.84375 4.917969 L 6.980469 6.105469 Z M 5.160156 4.78125 "/>
<path style=" stroke:none;fill-rule:nonzero;fill:rgb(40%,40%,40%);fill-opacity:1;" d="M 7.652344 5.554688 C 7.605469 5.519531 7.539062 5.53125 7.503906 5.578125 C 7.46875 5.625 7.480469 5.691406 7.527344 5.722656 C 7.574219 5.757812 7.640625 5.75 7.675781 5.699219 C 7.710938 5.652344 7.699219 5.589844 7.652344 5.554688 Z M 7.652344 5.554688 "/>
<path style=" stroke:none;fill-rule:nonzero;fill:rgb(0%,0%,0%);fill-opacity:1;" d="M 5.773438 3.402344 L 4.902344 4.605469 C 4.835938 4.691406 4.855469 4.816406 4.945312 4.878906 L 7.046875 6.40625 C 7.132812 6.46875 7.257812 6.453125 7.320312 6.363281 L 8.191406 5.160156 C 8.257812 5.070312 8.238281 4.949219 8.152344 4.882812 L 6.046875 3.359375 C 5.960938 3.292969 5.835938 3.3125 5.773438 3.402344 Z M 7.671875 5.699219 C 7.640625 5.746094 7.574219 5.757812 7.523438 5.722656 C 7.480469 5.6875 7.464844 5.621094 7.5 5.574219 C 7.539062 5.527344 7.601562 5.515625 7.648438 5.550781 C 7.699219 5.585938 7.707031 5.652344 7.671875 5.699219 Z M 7.847656 4.917969 L 6.984375 6.109375 L 5.164062 4.785156 L 6.023438 3.59375 Z M 7.847656 4.917969 "/>
<path style=" stroke:none;fill-rule:nonzero;fill:rgb(87.843137%,87.843137%,87.843137%);fill-opacity:1;" d="M 10.917969 0.636719 L 12.175781 -0.523438 L 13.953125 1.40625 L 12.695312 2.566406 Z M 10.917969 0.636719 "/>
<path style=" stroke:none;fill-rule:nonzero;fill:rgb(40%,40%,40%);fill-opacity:1;" d="M 13.589844 2.089844 C 13.542969 2.039062 13.464844 2.039062 13.414062 2.082031 C 13.363281 2.128906 13.363281 2.207031 13.40625 2.257812 C 13.453125 2.308594 13.53125 2.308594 13.582031 2.265625 C 13.632812 2.21875 13.636719 2.140625 13.589844 2.089844 Z M 13.589844 2.089844 "/>
<path style=" stroke:none;fill-rule:nonzero;fill:rgb(0%,0%,0%);fill-opacity:1;" d="M 11.9375 -0.800781 L 10.664062 0.375 C 10.570312 0.460938 10.5625 0.605469 10.648438 0.699219 L 12.699219 2.925781 C 12.785156 3.019531 12.933594 3.023438 13.027344 2.9375 L 14.296875 1.765625 C 14.390625 1.679688 14.398438 1.535156 14.3125 1.441406 L 12.261719 -0.785156 C 12.175781 -0.878906 12.03125 -0.886719 11.9375 -0.800781 Z M 13.578125 2.261719 C 13.53125 2.304688 13.453125 2.304688 13.40625 2.253906 C 13.359375 2.207031 13.359375 2.128906 13.414062 2.078125 C 13.464844 2.03125 13.539062 2.035156 13.585938 2.085938 C 13.632812 2.140625 13.628906 2.214844 13.578125 2.261719 Z M 13.957031 1.410156 L 12.699219 2.570312 L 10.921875 0.636719 L 12.179688 -0.523438 Z M 13.957031 1.410156 "/>
<path style=" stroke:none;fill-rule:nonzero;fill:rgb(70.196078%,70.588235%,70.588235%);fill-opacity:1;" d="M 16.746094 17.019531 L 15.101562 16.816406 L 15.167969 16.394531 L 16.683594 16.628906 Z M 16.746094 17.019531 "/>
<path style=" stroke:none;fill-rule:nonzero;fill:rgb(70.196078%,70.588235%,70.588235%);fill-opacity:1;" d="M 8.226562 12.933594 C 8.101562 12.804688 7.890625 12.796875 7.757812 12.921875 C 7.628906 13.050781 7.621094 13.257812 7.746094 13.390625 C 7.875 13.523438 8.082031 13.527344 8.214844 13.402344 C 8.347656 13.277344 8.351562 13.066406 8.226562 12.933594 Z M 8.226562 12.933594 "/>
<path style=" stroke:none;fill-rule:nonzero;fill:rgb(70.196078%,70.588235%,70.588235%);fill-opacity:1;" d="M 18.253906 11.246094 L 17.398438 12.824219 L 17.117188 12.367188 L 17.882812 11.035156 Z M 18.253906 11.246094 "/>
<path style=" stroke:none;fill-rule:nonzero;fill:rgb(70.196078%,70.588235%,70.588235%);fill-opacity:1;" d="M 7.058594 19.394531 C 7.054688 19.394531 7.050781 19.394531 7.046875 19.394531 C 6.851562 19.390625 6.671875 19.3125 6.535156 19.171875 C 6.253906 18.882812 6.261719 18.421875 6.550781 18.140625 C 6.6875 18.003906 6.871094 17.933594 7.066406 17.933594 C 7.261719 17.9375 7.445312 18.015625 7.578125 18.15625 C 7.859375 18.441406 7.855469 18.90625 7.566406 19.1875 C 7.429688 19.320312 7.25 19.394531 7.058594 19.394531 Z M 7.058594 18.269531 C 6.953125 18.269531 6.855469 18.308594 6.78125 18.378906 C 6.625 18.53125 6.621094 18.785156 6.773438 18.941406 C 6.847656 19.015625 6.945312 19.058594 7.050781 19.058594 C 7.160156 19.058594 7.257812 19.019531 7.332031 18.945312 C 7.488281 18.796875 7.492188 18.542969 7.339844 18.386719 C 7.265625 18.3125 7.167969 18.269531 7.0625 18.269531 C 7.0625 18.269531 7.058594 18.269531 7.058594 18.269531 Z M 7.058594 18.269531 "/>
<path style=" stroke:none;fill-rule:nonzero;fill:rgb(70.196078%,70.588235%,70.588235%);fill-opacity:1;" d="M 4.238281 10.351562 L 3.9375 10.429688 C 3.875 10.195312 3.632812 10.054688 3.402344 10.117188 C 3.285156 10.148438 3.191406 10.21875 3.132812 10.320312 C 3.074219 10.421875 3.058594 10.542969 3.085938 10.65625 L 2.785156 10.734375 C 2.734375 10.539062 2.761719 10.339844 2.863281 10.164062 C 2.964844 9.992188 3.128906 9.867188 3.320312 9.816406 C 3.722656 9.710938 4.132812 9.953125 4.238281 10.351562 Z M 4.238281 10.351562 "/>
<path style=" stroke:none;fill-rule:nonzero;fill:rgb(87.843137%,87.843137%,87.843137%);fill-opacity:1;" d="M 3.605469 14.609375 L 3.546875 15.953125 L 1.488281 15.867188 L 1.542969 14.523438 Z M 3.605469 14.609375 "/>
<path style=" stroke:none;fill-rule:nonzero;fill:rgb(40%,40%,40%);fill-opacity:1;" d="M 1.3125 15.285156 C 1.367188 15.285156 1.410156 15.246094 1.414062 15.191406 C 1.414062 15.136719 1.375 15.09375 1.320312 15.089844 C 1.265625 15.089844 1.222656 15.128906 1.21875 15.183594 C 1.21875 15.238281 1.257812 15.28125 1.3125 15.285156 Z M 1.3125 15.285156 "/>
<path style=" stroke:none;fill-rule:nonzero;fill:rgb(0%,0%,0%);fill-opacity:1;" d="M 3.835938 15.972656 L 3.890625 14.613281 C 3.894531 14.515625 3.816406 14.429688 3.71875 14.425781 L 1.34375 14.328125 C 1.242188 14.324219 1.160156 14.398438 1.15625 14.5 L 1.097656 15.859375 C 1.09375 15.957031 1.171875 16.042969 1.269531 16.046875 L 3.644531 16.144531 C 3.746094 16.148438 3.828125 16.074219 3.835938 15.972656 Z M 1.222656 15.183594 C 1.226562 15.132812 1.269531 15.089844 1.324219 15.089844 C 1.375 15.09375 1.417969 15.136719 1.417969 15.191406 C 1.414062 15.246094 1.371094 15.285156 1.316406 15.285156 C 1.261719 15.28125 1.222656 15.238281 1.222656 15.183594 Z M 1.484375 15.867188 L 1.539062 14.523438 L 3.597656 14.613281 L 3.542969 15.953125 Z M 1.484375 15.867188 "/>
<path style=" stroke:none;fill-rule:nonzero;fill:rgb(87.843137%,87.843137%,87.843137%);fill-opacity:1;" d="M 12.5 13.863281 L 11.695312 12.382812 L 13.964844 11.148438 L 14.769531 12.628906 Z M 12.5 13.863281 "/>
<path style=" stroke:none;fill-rule:nonzero;fill:rgb(40%,40%,40%);fill-opacity:1;" d="M 14.53125 11.660156 C 14.46875 11.691406 14.449219 11.765625 14.480469 11.824219 C 14.511719 11.882812 14.585938 11.90625 14.644531 11.875 C 14.703125 11.84375 14.726562 11.769531 14.695312 11.710938 C 14.660156 11.652344 14.589844 11.628906 14.53125 11.660156 Z M 14.53125 11.660156 "/>
<path style=" stroke:none;fill-rule:nonzero;fill:rgb(0%,0%,0%);fill-opacity:1;" d="M 11.375 12.546875 L 12.191406 14.042969 C 12.25 14.152344 12.386719 14.195312 12.496094 14.132812 L 15.113281 12.707031 C 15.222656 12.648438 15.265625 12.511719 15.203125 12.402344 L 14.390625 10.90625 C 14.328125 10.796875 14.191406 10.753906 14.082031 10.816406 L 11.464844 12.242188 C 11.355469 12.300781 11.316406 12.4375 11.375 12.546875 Z M 14.691406 11.710938 C 14.722656 11.769531 14.703125 11.84375 14.640625 11.875 C 14.585938 11.90625 14.507812 11.886719 14.476562 11.828125 C 14.445312 11.765625 14.464844 11.695312 14.527344 11.664062 C 14.585938 11.628906 14.65625 11.652344 14.691406 11.710938 Z M 13.96875 11.148438 L 14.773438 12.625 L 12.503906 13.859375 L 11.699219 12.382812 Z M 13.96875 11.148438 "/>
<path style=" stroke:none;fill-rule:nonzero;fill:rgb(87.843137%,87.843137%,87.843137%);fill-opacity:1;" d="M 10.917969 19.835938 L 12.175781 18.675781 L 13.953125 20.609375 L 12.695312 21.765625 Z M 10.917969 19.835938 "/>
<path style=" stroke:none;fill-rule:nonzero;fill:rgb(0%,0%,0%);fill-opacity:1;" d="M 11.9375 18.398438 L 10.664062 19.574219 C 10.570312 19.660156 10.5625 19.804688 10.648438 19.898438 L 12.699219 22.125 C 12.785156 22.21875 12.933594 22.226562 13.027344 22.140625 L 14.296875 20.964844 C 14.390625 20.878906 14.398438 20.734375 14.3125 20.640625 L 12.261719 18.414062 C 12.175781 18.320312 12.03125 18.316406 11.9375 18.398438 Z M 13.578125 21.460938 C 13.53125 21.507812 13.453125 21.503906 13.40625 21.453125 C 13.359375 21.40625 13.359375 21.328125 13.414062 21.28125 C 13.464844 21.234375 13.539062 21.234375 13.585938 21.289062 C 13.632812 21.339844 13.628906 21.414062 13.578125 21.460938 Z M 13.957031 20.609375 L 12.699219 21.769531 L 10.921875 19.839844 L 12.179688 18.679688 Z M 13.957031 20.609375 "/>
</g>
</svg>
