<?xml version="1.0" encoding="UTF-8"?>
<svg xmlns="http://www.w3.org/2000/svg" xmlns:xlink="http://www.w3.org/1999/xlink" width="px" height="0px" viewBox="0 0 19 19" version="1.1">
<g id="surface1">
<path style=" stroke:none;fill-rule:nonzero;fill:rgb(70.196078%,70.588235%,70.588235%);fill-opacity:1;" d="M 12.457031 7.238281 C 12.453125 7.238281 12.449219 7.238281 12.445312 7.238281 C 12.226562 7.234375 12.019531 7.144531 11.867188 6.988281 C 11.546875 6.660156 11.554688 6.136719 11.882812 5.816406 C 12.039062 5.664062 12.246094 5.582031 12.46875 5.585938 C 12.6875 5.585938 12.894531 5.675781 13.050781 5.832031 C 13.367188 6.160156 13.359375 6.683594 13.035156 7.003906 C 12.878906 7.152344 12.675781 7.238281 12.457031 7.238281 Z M 12.457031 5.960938 C 12.339844 5.960938 12.230469 6.007812 12.144531 6.089844 C 11.96875 6.261719 11.964844 6.546875 12.136719 6.722656 C 12.21875 6.808594 12.332031 6.855469 12.453125 6.859375 C 12.574219 6.859375 12.683594 6.816406 12.769531 6.730469 C 12.949219 6.558594 12.953125 6.273438 12.777344 6.097656 C 12.695312 6.011719 12.582031 5.964844 12.464844 5.960938 C 12.460938 5.960938 12.460938 5.960938 12.457031 5.960938 Z M 12.457031 5.960938 "/>
<path style=" stroke:none;fill-rule:nonzero;fill:rgb(70.196078%,70.588235%,70.588235%);fill-opacity:1;" d="M 2.121094 2.339844 L 1.992188 1.960938 C 2.289062 1.859375 2.445312 1.539062 2.347656 1.242188 C 2.296875 1.101562 2.199219 0.984375 2.0625 0.917969 C 1.925781 0.851562 1.773438 0.84375 1.632812 0.890625 L 1.503906 0.511719 C 1.746094 0.429688 2.007812 0.445312 2.238281 0.558594 C 2.46875 0.671875 2.644531 0.871094 2.726562 1.113281 C 2.898438 1.617188 2.625 2.167969 2.121094 2.339844 Z M 2.121094 2.339844 "/>
<path style=" stroke:none;fill-rule:nonzero;fill:rgb(70.196078%,70.588235%,70.588235%);fill-opacity:1;" d="M 17.527344 1.386719 C 17.402344 1.253906 17.191406 1.246094 17.058594 1.371094 C 16.925781 1.5 16.921875 1.707031 17.046875 1.839844 C 17.171875 1.972656 17.382812 1.976562 17.515625 1.851562 C 17.644531 1.726562 17.652344 1.515625 17.527344 1.386719 Z M 17.527344 1.386719 "/>
<path style=" stroke:none;fill-rule:nonzero;fill:rgb(70.196078%,70.588235%,70.588235%);fill-opacity:1;" d="M 7.761719 9.089844 L 8.929688 8.089844 L 9.363281 8.308594 L 8.039062 9.414062 Z M 7.761719 9.089844 "/>
<path style=" stroke:none;fill-rule:nonzero;fill:rgb(70.196078%,70.588235%,70.588235%);fill-opacity:1;" d="M 7.058594 0.191406 C 7.054688 0.191406 7.050781 0.191406 7.046875 0.191406 C 6.851562 0.191406 6.671875 0.113281 6.535156 -0.0273438 C 6.253906 -0.316406 6.261719 -0.777344 6.550781 -1.058594 C 6.6875 -1.195312 6.871094 -1.265625 7.066406 -1.265625 C 7.261719 -1.261719 7.445312 -1.183594 7.578125 -1.042969 C 7.859375 -0.757812 7.855469 -0.292969 7.566406 -0.015625 C 7.429688 0.121094 7.25 0.191406 7.058594 0.191406 Z M 7.058594 -0.933594 C 6.953125 -0.933594 6.855469 -0.890625 6.78125 -0.820312 C 6.625 -0.667969 6.621094 -0.417969 6.773438 -0.261719 C 6.847656 -0.183594 6.945312 -0.140625 7.050781 -0.140625 C 7.160156 -0.140625 7.257812 -0.179688 7.332031 -0.253906 C 7.488281 -0.40625 7.492188 -0.65625 7.339844 -0.8125 C 7.265625 -0.886719 7.167969 -0.929688 7.0625 -0.933594 C 7.0625 -0.933594 7.058594 -0.933594 7.058594 -0.933594 Z M 7.058594 -0.933594 "/>
<path style=" stroke:none;fill-rule:nonzero;fill:rgb(83.921569%,35.294118%,38.431373%);fill-opacity:1;" d="M 0.167969 6.46875 C 0.078125 5.960938 -0.335938 5.570312 -0.851562 5.5 L -0.890625 5.789062 C -0.519531 5.839844 -0.214844 6.117188 -0.128906 6.476562 L -0.328125 6.480469 L 0.0273438 6.824219 L 0.371094 6.464844 Z M 0.167969 6.46875 "/>
<path style=" stroke:none;fill-rule:nonzero;fill:rgb(87.843137%,87.843137%,87.843137%);fill-opacity:1;" d="M -0.5 7.167969 L 1.683594 7.460938 L 1.53125 8.601562 L -0.652344 8.308594 Z M -0.5 7.167969 "/>
<path style=" stroke:none;fill-rule:nonzero;fill:rgb(0.392157%,0.392157%,0.392157%);fill-opacity:1;" d="M 1.789062 7.179688 L -0.527344 6.871094 C -0.679688 6.851562 -0.8125 6.953125 -0.835938 7.105469 L -0.992188 8.28125 C -1.011719 8.433594 -0.90625 8.566406 -0.757812 8.589844 L 1.558594 8.898438 C 1.710938 8.917969 1.847656 8.8125 1.867188 8.664062 L 2.023438 7.488281 C 2.042969 7.335938 1.941406 7.199219 1.789062 7.179688 Z M 1.53125 8.601562 L -0.652344 8.308594 L -0.5 7.167969 L 1.683594 7.460938 Z M 1.53125 8.601562 "/>
<path style=" stroke:none;fill-rule:nonzero;fill:rgb(83.921569%,35.294118%,38.431373%);fill-opacity:1;" d="M 19.367188 6.46875 C 19.277344 5.960938 18.863281 5.570312 18.347656 5.5 L 18.308594 5.789062 C 18.679688 5.839844 18.988281 6.117188 19.074219 6.476562 L 18.871094 6.480469 L 19.226562 6.824219 L 19.570312 6.464844 Z M 19.367188 6.46875 "/>
<path style=" stroke:none;fill-rule:nonzero;fill:rgb(87.843137%,87.843137%,87.843137%);fill-opacity:1;" d="M 16.59375 5.628906 L 17.855469 5.796875 L 17.546875 8.109375 L 16.285156 7.9375 Z M 16.59375 5.628906 "/>
<path style=" stroke:none;fill-rule:nonzero;fill:rgb(87.843137%,87.843137%,87.843137%);fill-opacity:1;" d="M 18.699219 7.167969 L 20.886719 7.460938 L 20.730469 8.601562 L 18.546875 8.308594 Z M 18.699219 7.167969 "/>
<path style=" stroke:none;fill-rule:nonzero;fill:rgb(0.392157%,0.392157%,0.392157%);fill-opacity:1;" d="M 17.921875 5.4375 L 16.625 5.265625 C 16.464844 5.242188 16.316406 5.351562 16.292969 5.507812 L 15.964844 7.957031 C 15.945312 8.113281 16.058594 8.257812 16.222656 8.277344 L 17.519531 8.453125 C 17.679688 8.472656 17.832031 8.367188 17.851562 8.210938 L 18.179688 5.765625 C 18.203125 5.609375 18.089844 5.460938 17.921875 5.4375 Z M 17.546875 8.101562 L 16.289062 7.933594 L 16.59375 5.628906 L 17.855469 5.796875 Z M 17.546875 8.101562 "/>
<path style=" stroke:none;fill-rule:nonzero;fill:rgb(0.392157%,0.392157%,0.392157%);fill-opacity:1;" d="M 20.988281 7.179688 L 18.671875 6.871094 C 18.523438 6.851562 18.386719 6.953125 18.367188 7.105469 L 18.207031 8.28125 C 18.1875 8.433594 18.292969 8.566406 18.441406 8.589844 L 20.761719 8.898438 C 20.910156 8.917969 21.046875 8.8125 21.066406 8.664062 L 21.222656 7.488281 C 21.242188 7.335938 21.140625 7.199219 20.988281 7.179688 Z M 20.730469 8.601562 L 18.546875 8.308594 L 18.699219 7.167969 L 20.886719 7.460938 Z M 20.730469 8.601562 "/>
<path style=" stroke:none;fill-rule:nonzero;fill:rgb(83.921569%,35.294118%,38.431373%);fill-opacity:1;" d="M 6.386719 4.191406 C 6.011719 4.066406 5.597656 4.203125 5.359375 4.527344 L 5.539062 4.65625 C 5.710938 4.425781 6.011719 4.320312 6.285156 4.394531 L 6.214844 4.535156 L 6.574219 4.417969 L 6.460938 4.054688 Z M 6.386719 4.191406 "/>
<path style=" stroke:none;fill-rule:nonzero;fill:rgb(87.843137%,87.843137%,87.843137%);fill-opacity:1;" d="M 4.800781 5.753906 L 5.378906 4.964844 L 6.824219 6.023438 L 6.246094 6.8125 Z M 4.800781 5.753906 "/>
<path style=" stroke:none;fill-rule:nonzero;fill:rgb(87.843137%,87.843137%,87.843137%);fill-opacity:1;" d="M 6.613281 4.902344 L 7.613281 3.535156 L 8.328125 4.054688 L 7.328125 5.421875 Z M 6.613281 4.902344 "/>
<path style=" stroke:none;fill-rule:nonzero;fill:rgb(0.392157%,0.392157%,0.392157%);fill-opacity:1;" d="M 5.160156 4.789062 L 4.566406 5.601562 C 4.492188 5.703125 4.511719 5.84375 4.609375 5.914062 L 6.144531 7.035156 C 6.242188 7.105469 6.378906 7.082031 6.453125 6.980469 L 7.046875 6.167969 C 7.121094 6.066406 7.101562 5.925781 7.003906 5.855469 L 5.476562 4.738281 C 5.382812 4.664062 5.238281 4.683594 5.160156 4.789062 Z M 6.820312 6.019531 L 6.246094 6.808594 L 4.800781 5.753906 L 5.378906 4.964844 Z M 6.820312 6.019531 "/>
<path style=" stroke:none;fill-rule:nonzero;fill:rgb(0.392157%,0.392157%,0.392157%);fill-opacity:1;" d="M 7.464844 3.359375 L 6.402344 4.808594 C 6.335938 4.902344 6.355469 5.035156 6.449219 5.101562 L 7.183594 5.640625 C 7.28125 5.710938 7.410156 5.691406 7.476562 5.597656 L 8.539062 4.144531 C 8.609375 4.050781 8.585938 3.921875 8.492188 3.855469 L 7.757812 3.316406 C 7.664062 3.246094 7.535156 3.265625 7.464844 3.359375 Z M 8.328125 4.054688 L 7.328125 5.421875 L 6.613281 4.902344 L 7.613281 3.535156 Z M 8.328125 4.054688 "/>
<path style=" stroke:none;fill-rule:nonzero;fill:rgb(83.921569%,35.294118%,38.431373%);fill-opacity:1;" d="M 12.457031 0.246094 C 12.058594 0.015625 11.550781 0.0742188 11.207031 0.390625 L 11.382812 0.582031 C 11.632812 0.355469 12 0.304688 12.296875 0.453125 L 12.179688 0.59375 L 12.621094 0.546875 L 12.570312 0.105469 Z M 12.457031 0.246094 "/>
<path style=" stroke:none;fill-rule:nonzero;fill:rgb(87.843137%,87.843137%,87.843137%);fill-opacity:1;" d="M 10.285156 1.664062 L 11.128906 0.894531 L 12.535156 2.4375 L 11.695312 3.207031 Z M 10.285156 1.664062 "/>
<path style=" stroke:none;fill-rule:nonzero;fill:rgb(87.843137%,87.843137%,87.843137%);fill-opacity:1;" d="M 12.554688 1.105469 L 14.011719 -0.226562 L 14.707031 0.535156 L 13.25 1.867188 Z M 12.554688 1.105469 "/>
<path style=" stroke:none;fill-rule:nonzero;fill:rgb(0.392157%,0.392157%,0.392157%);fill-opacity:1;" d="M 10.917969 0.644531 L 10.054688 1.4375 C 9.945312 1.535156 9.9375 1.699219 10.03125 1.804688 L 11.523438 3.4375 C 11.617188 3.539062 11.785156 3.542969 11.890625 3.445312 L 12.757812 2.65625 C 12.863281 2.554688 12.875 2.390625 12.78125 2.289062 L 11.292969 0.65625 C 11.199219 0.550781 11.03125 0.542969 10.917969 0.644531 Z M 12.53125 2.433594 L 11.691406 3.203125 L 10.285156 1.664062 L 11.128906 0.894531 Z M 12.53125 2.433594 "/>
<path style=" stroke:none;fill-rule:nonzero;fill:rgb(0.392157%,0.392157%,0.392157%);fill-opacity:1;" d="M 13.878906 -0.457031 L 12.335938 0.953125 C 12.234375 1.046875 12.226562 1.199219 12.320312 1.300781 L 13.035156 2.082031 C 13.128906 2.183594 13.28125 2.191406 13.378906 2.097656 L 14.925781 0.6875 C 15.027344 0.59375 15.03125 0.441406 14.941406 0.34375 L 14.222656 -0.441406 C 14.132812 -0.542969 13.980469 -0.550781 13.878906 -0.457031 Z M 14.707031 0.535156 L 13.25 1.867188 L 12.554688 1.105469 L 14.011719 -0.226562 Z M 14.707031 0.535156 "/>
<path style=" stroke:none;fill-rule:nonzero;fill:rgb(70.196078%,70.588235%,70.588235%);fill-opacity:1;" d="M 16.746094 17.019531 L 15.101562 16.816406 L 15.167969 16.394531 L 16.683594 16.628906 Z M 16.746094 17.019531 "/>
<path style=" stroke:none;fill-rule:nonzero;fill:rgb(70.196078%,70.588235%,70.588235%);fill-opacity:1;" d="M 8.226562 12.933594 C 8.101562 12.804688 7.890625 12.796875 7.757812 12.921875 C 7.628906 13.050781 7.621094 13.257812 7.746094 13.390625 C 7.875 13.523438 8.082031 13.527344 8.214844 13.402344 C 8.347656 13.277344 8.351562 13.066406 8.226562 12.933594 Z M 8.226562 12.933594 "/>
<path style=" stroke:none;fill-rule:nonzero;fill:rgb(70.196078%,70.588235%,70.588235%);fill-opacity:1;" d="M 18.253906 11.246094 L 17.398438 12.824219 L 17.117188 12.367188 L 17.882812 11.035156 Z M 18.253906 11.246094 "/>
<path style=" stroke:none;fill-rule:nonzero;fill:rgb(70.196078%,70.588235%,70.588235%);fill-opacity:1;" d="M 7.058594 19.394531 C 7.054688 19.394531 7.050781 19.394531 7.046875 19.394531 C 6.851562 19.390625 6.671875 19.3125 6.535156 19.171875 C 6.253906 18.882812 6.261719 18.421875 6.550781 18.140625 C 6.6875 18.003906 6.871094 17.933594 7.066406 17.933594 C 7.261719 17.9375 7.445312 18.015625 7.578125 18.15625 C 7.859375 18.441406 7.855469 18.90625 7.566406 19.1875 C 7.429688 19.320312 7.25 19.394531 7.058594 19.394531 Z M 7.058594 18.269531 C 6.953125 18.269531 6.855469 18.308594 6.78125 18.378906 C 6.625 18.53125 6.621094 18.785156 6.773438 18.941406 C 6.847656 19.015625 6.945312 19.058594 7.050781 19.058594 C 7.160156 19.058594 7.257812 19.019531 7.332031 18.945312 C 7.488281 18.796875 7.492188 18.542969 7.339844 18.386719 C 7.265625 18.3125 7.167969 18.269531 7.0625 18.269531 C 7.0625 18.269531 7.058594 18.269531 7.058594 18.269531 Z M 7.058594 18.269531 "/>
<path style=" stroke:none;fill-rule:nonzero;fill:rgb(70.196078%,70.588235%,70.588235%);fill-opacity:1;" d="M 4.238281 10.351562 L 3.9375 10.429688 C 3.875 10.195312 3.632812 10.054688 3.402344 10.117188 C 3.285156 10.148438 3.191406 10.21875 3.132812 10.320312 C 3.074219 10.421875 3.058594 10.542969 3.085938 10.65625 L 2.785156 10.734375 C 2.734375 10.539062 2.761719 10.339844 2.863281 10.164062 C 2.964844 9.992188 3.128906 9.867188 3.320312 9.816406 C 3.722656 9.710938 4.132812 9.953125 4.238281 10.351562 Z M 4.238281 10.351562 "/>
<path style=" stroke:none;fill-rule:nonzero;fill:rgb(83.921569%,35.294118%,38.431373%);fill-opacity:1;" d="M 2.964844 15.679688 C 3.3125 15.585938 3.5625 15.273438 3.578125 14.910156 L 3.375 14.898438 C 3.363281 15.164062 3.1875 15.394531 2.941406 15.476562 L 2.925781 15.335938 L 2.707031 15.605469 L 2.980469 15.824219 Z M 2.964844 15.679688 "/>
<path style=" stroke:none;fill-rule:nonzero;fill:rgb(87.843137%,87.843137%,87.843137%);fill-opacity:1;" d="M 3.382812 13.6875 L 3.34375 14.582031 L 1.703125 14.507812 L 1.746094 13.613281 Z M 3.382812 13.6875 "/>
<path style=" stroke:none;fill-rule:nonzero;fill:rgb(87.843137%,87.843137%,87.843137%);fill-opacity:1;" d="M 2.433594 15.257812 L 2.363281 16.804688 L 1.554688 16.769531 L 1.625 15.21875 Z M 2.433594 15.257812 "/>
<path style=" stroke:none;fill-rule:nonzero;fill:rgb(0.392157%,0.392157%,0.392157%);fill-opacity:1;" d="M 3.597656 14.605469 L 3.640625 13.6875 C 3.644531 13.574219 3.558594 13.476562 3.449219 13.46875 L 1.714844 13.390625 C 1.601562 13.386719 1.507812 13.476562 1.503906 13.589844 L 1.460938 14.507812 C 1.457031 14.625 1.542969 14.722656 1.652344 14.726562 L 3.382812 14.804688 C 3.492188 14.816406 3.589844 14.726562 3.597656 14.605469 Z M 1.710938 14.507812 L 1.75 13.613281 L 3.382812 13.6875 L 3.34375 14.582031 Z M 1.710938 14.507812 "/>
<path style=" stroke:none;fill-rule:nonzero;fill:rgb(0.392157%,0.392157%,0.392157%);fill-opacity:1;" d="M 2.566406 16.859375 L 2.640625 15.21875 C 2.644531 15.113281 2.5625 15.023438 2.457031 15.019531 L 1.625 14.980469 C 1.515625 14.976562 1.429688 15.058594 1.421875 15.164062 L 1.347656 16.804688 C 1.34375 16.910156 1.425781 17 1.53125 17.003906 L 2.363281 17.042969 C 2.472656 17.046875 2.558594 16.96875 2.566406 16.859375 Z M 1.554688 16.769531 L 1.625 15.21875 L 2.433594 15.257812 L 2.363281 16.804688 Z M 1.554688 16.769531 "/>
<path style=" stroke:none;fill-rule:nonzero;fill:rgb(83.921569%,35.294118%,38.431373%);fill-opacity:1;" d="M 12.496094 12.300781 C 12.183594 12.625 12.117188 13.125 12.335938 13.527344 L 12.5625 13.40625 C 12.402344 13.113281 12.445312 12.753906 12.65625 12.503906 L 12.765625 12.648438 L 12.824219 12.214844 L 12.390625 12.15625 Z M 12.496094 12.300781 "/>
<path style=" stroke:none;fill-rule:nonzero;fill:rgb(87.843137%,87.843137%,87.843137%);fill-opacity:1;" d="M 13.332031 14.710938 L 12.800781 13.726562 L 14.609375 12.75 L 15.140625 13.734375 Z M 13.332031 14.710938 "/>
<path style=" stroke:none;fill-rule:nonzero;fill:rgb(87.843137%,87.843137%,87.843137%);fill-opacity:1;" d="M 13.34375 12.414062 L 12.417969 10.703125 L 13.3125 10.222656 L 14.234375 11.933594 Z M 13.34375 12.414062 "/>
<path style=" stroke:none;fill-rule:nonzero;fill:rgb(0.392157%,0.392157%,0.392157%);fill-opacity:1;" d="M 12.511719 13.863281 L 13.058594 14.878906 C 13.125 15.003906 13.28125 15.054688 13.402344 14.988281 L 15.320312 13.953125 C 15.441406 13.890625 15.484375 13.730469 15.417969 13.605469 L 14.867188 12.589844 C 14.800781 12.464844 14.644531 12.414062 14.523438 12.480469 L 12.613281 13.511719 C 12.488281 13.574219 12.441406 13.730469 12.511719 13.863281 Z M 14.605469 12.75 L 15.136719 13.738281 L 13.332031 14.710938 L 12.800781 13.726562 Z M 14.605469 12.75 "/>
<path style=" stroke:none;fill-rule:nonzero;fill:rgb(0.392157%,0.392157%,0.392157%);fill-opacity:1;" d="M 12.164062 10.773438 L 13.144531 12.585938 C 13.207031 12.703125 13.351562 12.746094 13.46875 12.683594 L 14.390625 12.1875 C 14.507812 12.125 14.550781 11.980469 14.488281 11.863281 L 13.507812 10.050781 C 13.445312 9.929688 13.300781 9.886719 13.183594 9.953125 L 12.261719 10.449219 C 12.144531 10.511719 12.101562 10.65625 12.164062 10.773438 Z M 13.3125 10.222656 L 14.234375 11.933594 L 13.34375 12.414062 L 12.417969 10.703125 Z M 13.3125 10.222656 "/>
<path style=" stroke:none;fill-rule:nonzero;fill:rgb(87.843137%,87.843137%,87.843137%);fill-opacity:1;" d="M 12.554688 20.304688 L 14.011719 18.972656 L 14.707031 19.734375 L 13.25 21.066406 Z M 12.554688 20.304688 "/>
<path style=" stroke:none;fill-rule:nonzero;fill:rgb(0.392157%,0.392157%,0.392157%);fill-opacity:1;" d="M 13.878906 18.742188 L 12.335938 20.15625 C 12.234375 20.246094 12.226562 20.398438 12.320312 20.5 L 13.035156 21.285156 C 13.128906 21.382812 13.28125 21.390625 13.378906 21.300781 L 14.925781 19.886719 C 15.027344 19.796875 15.03125 19.640625 14.941406 19.542969 L 14.222656 18.757812 C 14.132812 18.65625 13.980469 18.648438 13.878906 18.742188 Z M 14.707031 19.734375 L 13.25 21.066406 L 12.554688 20.304688 L 14.011719 18.972656 Z M 14.707031 19.734375 "/>
</g>
</svg>
